<svg width="39" height="30" viewBox="0 0 39 30" fill="none" xmlns="http://www.w3.org/2000/svg">
<path d="M38.6875 6.34375L20.1875 0.03125C20.0938 4.65661e-10 20 4.65661e-10 19.9062 0.03125L1.15625 7.3125C1.03125 7.375 0.9375 7.5 0.9375 7.6875C0.9375 7.84375 1.03125 8 1.1875 8.03125L8.96875 10.6875L8.6875 19.5C8.6875 19.5938 8.71875 19.7188 8.8125 19.7812C8.9375 19.9062 11.9063 22.8125 18.0938 22.8125C18.4062 22.8125 18.7188 22.8125 19.0312 22.7812C25.8125 22.4688 29.5938 19.5312 29.7812 19.4062C29.875 19.3437 29.9375 19.2188 29.9375 19.125L30.0938 10.3125L38.7188 7.09375C38.875 7.03125 38.9688 6.90625 38.9688 6.71875C38.9375 6.53125 38.8438 6.375 38.6875 6.34375ZM29.1562 18.9062C28.4062 19.4375 24.8125 21.75 19 22.0312C13.2188 22.2812 10.0938 19.875 9.46875 19.3438L9.71875 10.9375L19.3125 14.2188C19.3438 14.2188 19.4062 14.25 19.4375 14.25C19.4688 14.25 19.5312 14.25 19.5625 14.2188L29.3125 10.5625L29.1562 18.9062ZM19.4375 13.4687L2.4375 7.65625L20.0625 0.78125L37.4375 6.71875L19.4375 13.4687Z" fill="#58595B"/>
<path d="M37.25 18.8438V18.8125C37.3125 18.6875 37.375 18.5312 37.4375 18.375C37.625 17.7812 37.5625 17.1562 37.3125 16.625C37.0313 16.0625 36.5938 15.6875 36.0313 15.5312C35.9688 15.5 35.9063 15.5 35.875 15.5L36.125 7.78125C36.125 7.5625 35.9688 7.40625 35.75 7.375L19.8125 6.78125C19.5938 6.78125 19.4375 6.9375 19.4062 7.15625C19.4062 7.375 19.5625 7.53125 19.7813 7.5625L35.3438 8.15625L35.125 15.5312C34.3125 15.6875 33.5625 16.3125 33.3125 17.2187C33.125 17.8125 33.1875 18.4375 33.4375 18.9688C33.5625 19.1875 33.6875 19.4062 33.875 19.5625L32.75 29.625C32.75 29.75 32.7812 29.875 32.875 29.9375C32.9375 30 33.0312 30.0312 33.125 30.0312C33.1563 30.0312 33.1562 30.0312 33.1875 30.0312L38 29.1563C38.1875 29.125 38.3438 28.9375 38.3125 28.75L37.25 18.8438ZM34 17.375C34.2188 16.6562 34.8125 16.1875 35.4375 16.1875C35.5625 16.1875 35.6875 16.2188 35.7812 16.25C36.125 16.3438 36.4375 16.5937 36.5938 16.9688C36.7812 17.3438 36.8125 17.75 36.6875 18.1875C36.4375 19.0312 35.625 19.5312 34.875 19.3125C34.5312 19.2187 34.2188 18.9688 34.0625 18.5938C33.9062 18.2188 33.875 17.7812 34 17.375ZM33.5313 29.1563L34.5625 19.9688C34.5938 20 34.6562 20 34.6875 20.0312C34.875 20.0937 35.0625 20.125 35.25 20.125C35.7188 20.125 36.1875 19.9688 36.5625 19.6562L37.5 28.4687L33.5313 29.1563Z" fill="#FF9900"/>
</svg>
