<svg width="21" height="24" viewBox="0 0 21 24" fill="none" xmlns="http://www.w3.org/2000/svg">
<path fill-rule="evenodd" clip-rule="evenodd" d="M15.9312 8.07812C13.9983 8.07812 12.4312 9.64527 12.4312 11.5781C12.4312 13.511 13.9983 15.0781 15.9312 15.0781C17.864 15.0781 19.4312 13.511 19.4312 11.5781C19.4312 9.64527 17.864 8.07812 15.9312 8.07812ZM11.4312 11.5781C11.4312 9.09298 13.446 7.07812 15.9312 7.07812C18.4163 7.07812 20.4312 9.09298 20.4312 11.5781C20.4312 14.0633 18.4163 16.0781 15.9312 16.0781C13.446 16.0781 11.4312 14.0633 11.4312 11.5781Z" fill="#58595B"/>
<path fill-rule="evenodd" clip-rule="evenodd" d="M4.75 1.99316C2.81714 1.99316 1.25 3.56031 1.25 5.49316C1.25 7.42602 2.81714 8.99316 4.75 8.99316C6.68286 8.99316 8.25 7.42602 8.25 5.49316C8.25 3.56031 6.68286 1.99316 4.75 1.99316ZM0.25 5.49316C0.25 3.00802 2.26486 0.993164 4.75 0.993164C7.23514 0.993164 9.25 3.00802 9.25 5.49316C9.25 7.97831 7.23514 9.99316 4.75 9.99316C2.26486 9.99316 0.25 7.97831 0.25 5.49316Z" fill="#58595B"/>
<path fill-rule="evenodd" clip-rule="evenodd" d="M4.75 15.0078C2.81714 15.0078 1.25 16.575 1.25 18.5078C1.25 20.4407 2.81714 22.0078 4.75 22.0078C6.68286 22.0078 8.25 20.4407 8.25 18.5078C8.25 16.575 6.68286 15.0078 4.75 15.0078ZM0.25 18.5078C0.25 16.0227 2.26486 14.0078 4.75 14.0078C7.23514 14.0078 9.25 16.0227 9.25 18.5078C9.25 20.993 7.23514 23.0078 4.75 23.0078C2.26486 23.0078 0.25 20.993 0.25 18.5078Z" fill="#58595B"/>
<path fill-rule="evenodd" clip-rule="evenodd" d="M7.88623 15.9768L12.2682 13.2598L12.7952 14.1097L8.41319 16.8267L7.88623 15.9768Z" fill="#58595B"/>
<path fill-rule="evenodd" clip-rule="evenodd" d="M12.0994 10.2399L7.98145 7.90291L8.47501 7.0332L12.593 9.3702L12.0994 10.2399Z" fill="#58595B"/>
</svg>
