<svg width="20" height="20" viewBox="0 0 20 20" fill="none" xmlns="http://www.w3.org/2000/svg">
<path d="M9.15646 0.400391C13.9926 0.400391 17.913 4.32083 17.913 9.15695C17.913 11.2694 17.165 13.2072 15.9193 14.7198L19.3517 18.1538C19.6826 18.4847 19.6826 19.0213 19.3517 19.3522C19.0428 19.6611 18.5548 19.6817 18.2221 19.414L18.1533 19.3522L14.7193 15.9198C13.2067 17.1654 11.2689 17.9135 9.15646 17.9135C4.32035 17.9135 0.399902 13.9931 0.399902 9.15695C0.399902 4.32083 4.32035 0.400391 9.15646 0.400391ZM9.15646 2.09521C5.25637 2.09521 2.09472 5.25686 2.09472 9.15695C2.09472 13.057 5.25637 16.2187 9.15646 16.2187C13.0565 16.2187 16.2182 13.057 16.2182 9.15695C16.2182 5.25686 13.0565 2.09521 9.15646 2.09521Z" fill="#9B9DA0"/>
<path d="M9.15646 0.400391C13.9926 0.400391 17.913 4.32083 17.913 9.15695C17.913 11.2694 17.165 13.2072 15.9193 14.7198L19.3517 18.1538C19.6826 18.4847 19.6826 19.0213 19.3517 19.3522C19.0428 19.6611 18.5548 19.6817 18.2221 19.414L18.1533 19.3522L14.7193 15.9198C13.2067 17.1654 11.2689 17.9135 9.15646 17.9135C4.32035 17.9135 0.399902 13.9931 0.399902 9.15695C0.399902 4.32083 4.32035 0.400391 9.15646 0.400391ZM9.15646 2.09521C5.25637 2.09521 2.09472 5.25686 2.09472 9.15695C2.09472 13.057 5.25637 16.2187 9.15646 16.2187C13.0565 16.2187 16.2182 13.057 16.2182 9.15695C16.2182 5.25686 13.0565 2.09521 9.15646 2.09521Z" stroke="#9B9DA0"/>
</svg>
