<svg width="24" height="30" viewBox="0 0 24 30" fill="none" xmlns="http://www.w3.org/2000/svg">
<path d="M21.2188 25.1869H20.5938C21.9062 23.6869 22.6562 21.7494 22.6562 19.7494C22.6562 16.2494 20.4688 13.1556 17.1875 11.9994C17.0312 10.4056 15.9062 9.09313 14.4062 8.68688L14.8125 7.84313C15.0625 7.37438 14.875 6.78063 14.4062 6.53063L14.875 5.59313C15.125 5.71813 15.375 5.71813 15.625 5.62438C15.875 5.53063 16.0938 5.34313 16.2188 5.12438L17.125 3.28063C17.25 3.03063 17.25 2.74938 17.1875 2.49938C17.0938 2.21813 16.9062 1.99938 16.6875 1.87438L13.0625 0.0931325C12.5625 -0.156867 11.9688 0.0618825 11.7188 0.561883L10.8125 2.40563C10.6875 2.65563 10.6875 2.93688 10.75 3.18688C10.8438 3.43688 11 3.62438 11.2188 3.74938L10.75 4.68688C10.25 4.43688 9.65625 4.65563 9.40625 5.15563L4.5 15.1556C4.375 15.4056 4.375 15.6869 4.4375 15.9369C4.53125 16.1869 4.71875 16.4056 4.9375 16.5306L8.5625 18.2806C8.71875 18.3431 8.84375 18.3744 9 18.3744C9.125 18.3744 9.21875 18.3431 9.3125 18.3119C9.5625 18.2181 9.78125 18.0306 9.90625 17.8119L11.0938 15.3744C11.7188 15.8744 12.5312 16.1556 13.4062 16.1556C14.4688 16.1556 15.4375 15.7181 16.125 14.9994C17.875 15.9681 18.9375 17.8119 18.9375 19.8119C18.9375 22.3119 17.25 24.5306 14.8438 25.1556C14.8125 25.1556 14.8125 25.1869 14.7812 25.1869H8.8125V23.6869C8.8125 23.4681 8.65625 23.3119 8.4375 23.3119H3.46875C3.25 23.3119 3.09375 23.4681 3.09375 23.6869V25.1869H2.8125C1.59375 25.1869 0.59375 26.1869 0.59375 27.4056V29.5931C0.59375 29.8431 0.75 29.9994 0.96875 29.9994H23.0625C23.2812 29.9994 23.4375 29.8431 23.4375 29.6244V27.4369C23.4375 26.1869 22.4375 25.1869 21.2188 25.1869ZM9.25 17.4681C9.21875 17.5306 9.15625 17.5619 9.09375 17.5931C9.03125 17.6244 8.96875 17.6244 8.90625 17.5931L5.28125 15.8119C5.21875 15.7806 5.1875 15.7181 5.15625 15.6556C5.125 15.5931 5.125 15.5306 5.15625 15.4681L10.0625 5.49938C10.125 5.37438 10.2812 5.31188 10.4062 5.37438L10.75 5.53063C10.8438 5.59313 10.9688 5.59313 11.0625 5.53063C11.1562 5.49938 11.25 5.40563 11.2812 5.31188V5.28063L12.0625 3.71813C12.1562 3.53063 12.0625 3.31188 11.875 3.21813L11.5625 3.06188C11.5 3.03063 11.4688 2.96813 11.4375 2.90563C11.4062 2.84313 11.4062 2.78063 11.4375 2.71813L12.3438 0.874383C12.4062 0.749383 12.5625 0.686883 12.6875 0.749383L16.3125 2.53063C16.4375 2.59313 16.5 2.74938 16.4375 2.87438L15.5312 4.71813C15.5 4.78063 15.4375 4.81188 15.375 4.84313C15.3125 4.87438 15.25 4.87438 15.1875 4.84313L14.875 4.68688C14.6875 4.59313 14.4688 4.68688 14.375 4.87438L13.625 6.43688L13.5938 6.46813C13.5312 6.56188 13.5 6.68688 13.5312 6.78063C13.5625 6.87438 13.625 6.96813 13.7188 7.03063L14 7.18688C14.125 7.24938 14.1875 7.40563 14.125 7.53063L13.5938 8.59313C13.5312 8.59313 13.4688 8.59313 13.375 8.59313C11.2813 8.59313 9.5625 10.3119 9.5625 12.4056C9.5625 13.3431 9.90625 14.2181 10.5 14.8744L9.25 17.4681ZM13.4062 15.4056C11.7188 15.4056 10.375 14.0306 10.375 12.3744C10.375 10.7181 11.75 9.34313 13.4062 9.34313C15.0625 9.34313 16.4375 10.7181 16.4375 12.3744C16.4375 14.0306 15.0938 15.4056 13.4062 15.4056ZM19.7188 19.8119C19.7188 17.5619 18.5312 15.5306 16.625 14.4056C16.9375 13.9369 17.125 13.3744 17.1875 12.8119C20.0312 13.9369 21.9062 16.6556 21.9062 19.7494C21.9062 21.8119 21.0312 23.7806 19.5312 25.1869H16.6875C18.5312 24.0619 19.7188 22.0619 19.7188 19.8119ZM3.84375 24.0931H8.0625V25.1869H3.84375V24.0931ZM22.6875 29.2494H1.34375V27.4369C1.34375 26.6244 2 25.9681 2.8125 25.9681H3.4375H8.40625H19.625H19.6562H19.6875H21.1875C22 25.9681 22.6562 26.6244 22.6562 27.4369V29.2494H22.6875Z" fill="#58595B"/>
</svg>
