<svg width="34" height="30" viewBox="0 0 34 30" fill="none" xmlns="http://www.w3.org/2000/svg">
<path d="M33.4063 26.4062H30.2813V25.375C30.2813 24.5625 29.9063 23.8438 29.3751 23.4375V10.8438C29.3751 10.625 29.2188 10.4688 29.0001 10.4688C28.7813 10.4688 28.6251 10.625 28.6251 10.8438V23.125C28.5626 23.125 28.4688 23.0938 28.4063 23.0938H26.1876V10.7813C26.1876 10.5625 26.0313 10.4062 25.8126 10.4062C25.5938 10.4062 25.4376 10.5625 25.4376 10.7813V23.125H22.6876V10.8125C22.6876 10.5937 22.5313 10.4375 22.3126 10.4375C22.0938 10.4375 21.9376 10.5937 21.9376 10.8125V23.125H19.5001V10.7813C19.5001 10.5625 19.3438 10.4062 19.1251 10.4062C18.9063 10.4062 18.7501 10.5625 18.7501 10.7813V23.125H15.3438V10.875C15.3438 10.6562 15.1876 10.5 14.9688 10.5C14.7501 10.5 14.5938 10.6562 14.5938 10.875V23.125H12.1563V10.8125C12.1563 10.5937 12.0001 10.4375 11.7813 10.4375C11.5626 10.4375 11.4063 10.5937 11.4063 10.8125V23.125H8.65633V10.875C8.65633 10.6562 8.50008 10.5 8.28133 10.5C8.06258 10.5 7.90633 10.6562 7.90633 10.875V23.125H5.46883V10.8125C5.46883 10.5937 5.31258 10.4375 5.09383 10.4375C4.87508 10.4375 4.71883 10.5937 4.71883 10.8125V23.375C4.09383 23.75 3.65633 24.5 3.65633 25.4063V26.4375H0.531326C0.312576 26.4375 0.156326 26.5938 0.156326 26.8125V29.625C0.125076 29.8438 0.281326 30 0.500076 30H33.4063C33.6251 30 33.7813 29.8438 33.7813 29.625V26.8125C33.7813 26.5938 33.6251 26.4062 33.4063 26.4062ZM4.37508 25.375C4.37508 24.5312 4.87508 23.875 5.53133 23.875H28.3751C29.0001 23.875 29.5313 24.5625 29.5313 25.375V26.4062H4.37508V25.375ZM33.0313 29.25H0.875076V27.1875H33.0001V29.25H33.0313Z" fill="#58595B"/>
<path d="M31.6255 11.0938H2.71924C2.25049 11.0938 1.87549 10.7188 1.87549 10.2188V6.96875C1.87549 6.75 2.03174 6.59375 2.25049 6.59375C2.46924 6.59375 2.62549 6.75 2.62549 6.96875V10.2188C2.62549 10.2813 2.68799 10.3125 2.71924 10.3125H31.6255C31.688 10.3125 31.7192 10.25 31.7192 10.2188V7.125C31.7192 6.90625 31.8755 6.75 32.0942 6.75C32.313 6.75 32.4692 6.90625 32.4692 7.125V10.2188C32.5005 10.6875 32.0942 11.0938 31.6255 11.0938Z" fill="#FF9900"/>
<path d="M32.2501 7.34375H2.18763C2.00013 7.34375 1.84388 7.21875 1.81263 7.03125C1.78138 6.84375 1.87513 6.6875 2.03138 6.59375L17.0001 0.03125C17.0939 4.65661e-10 17.2189 4.65661e-10 17.3126 0.03125L32.4064 6.625C32.5626 6.6875 32.6564 6.875 32.6251 7.0625C32.5626 7.21875 32.4064 7.34375 32.2501 7.34375ZM4.00013 6.59375H30.4376L17.1564 0.78125L4.00013 6.59375Z" fill="#58595B"/>
</svg>
