<svg width="24" height="24" viewBox="0 0 24 24" fill="none" xmlns="http://www.w3.org/2000/svg">
<path d="M8.4707 3.48438H15.5295" stroke="#333333" stroke-linecap="round"/>
<path d="M17.952 3.78125H20.5715C21.36 3.78125 22 4.42231 22 5.21376V12.9439V16.1968V19.5396C22 20.331 21.36 20.9721 20.5708 20.9721H12.3173L3.43259 21C2.64199 21.002 2 20.3603 2 19.5668V5.21376C2 4.42231 2.63927 3.78125 3.42784 3.78125H6.04737" stroke="#333333" stroke-linecap="round"/>
<path fill-rule="evenodd" clip-rule="evenodd" d="M17.7045 5.5625H15.7077C15.6091 5.5625 15.5293 5.48697 15.5293 5.39367V2.16819C15.5293 2.07489 15.6091 2 15.7077 2H17.7045C17.8031 2 17.8822 2.07489 17.8822 2.16819V5.39367C17.8822 5.48697 17.8031 5.5625 17.7045 5.5625Z" stroke="#333333" stroke-linecap="round"/>
<path fill-rule="evenodd" clip-rule="evenodd" d="M8.2922 5.5625H6.29542C6.19682 5.5625 6.11768 5.48697 6.11768 5.39367V2.16819C6.11768 2.07489 6.19682 2 6.29542 2H8.2922C8.3908 2 8.47062 2.07489 8.47062 2.16819V5.39367C8.47062 5.48697 8.3908 5.5625 8.2922 5.5625Z" stroke="#333333" stroke-linecap="round"/>
<path d="M2 8.23438H22" stroke="#333333" stroke-linecap="round"/>
<path d="M8.5 14L11 17L16.5 12" stroke="#333333" stroke-linecap="round" stroke-linejoin="round"/>
</svg>
